<svg width="1671" height="265" viewBox="0 0 1671 265" fill="none" xmlns="http://www.w3.org/2000/svg">
<g clip-path="url(#clip0_9116_1567)">
<mask id="mask0_9116_1567" style="mask-type:luminance" maskUnits="userSpaceOnUse" x="0" y="0" width="1671" height="265">
<path d="M1671 0H0V265H1671V0Z" fill="white"/>
</mask>
<g mask="url(#mask0_9116_1567)">
<path d="M262.001 0.900042C244.201 3.10004 229.801 19.6001 229.801 37.7001V223.7L294.301 246.9V29.6001C294.301 11.5001 279.901 -1.39996 262.101 0.900042H262.001Z" fill="white"/>
<path d="M162.6 54.9C146.2 56.9 132.9 72.1 132.9 88.8V189.1L192.2 210.2V81.3C192.2 64.6 178.9 52.8 162.5 54.8L162.6 54.9Z" fill="white"/>
<path d="M76.0992 100.9C61.7992 102.7 50.1992 116 50.1992 130.5V160L102.099 178.5V124C102.099 109.4 90.4992 99.1001 76.1992 100.9H76.0992Z" fill="white"/>
<path d="M229.799 223.7C229.799 223.7 118.999 265.6 120.599 264.7C122.199 263.9 294.299 246.9 294.299 246.9L229.799 223.7Z" fill="white"/>
<path d="M134.1 188.7L56.5 223.6L192.3 210.2L134.1 188.7Z" fill="white"/>
<path d="M50.1 160L0 188.8L102 178.5L50.1 160Z" fill="white"/>
<path d="M495.5 79.2999C481.8 79.5999 474.7 79.7 473.8 79.7C469.5 79.7 466.3 79.6999 464.2 79.5999C462.8 79.5999 461.6 80.3999 461.1 81.5999L428.5 165.2L396.6 81.7C396.1 80.5 394.9 79.5999 393.6 79.5999H363.1C361.7 79.5999 360.5 80.4999 360.1 81.7999C359.3 84.0999 359.3 86.4 360.1 88.7C360.5 89.8 361.5 90.6999 362.7 90.7999L371.7 92.0999C371.9 95.3999 372 99.8999 372 105.5V184.1L362.2 185.2C360.9 185.3 359.8 186.3 359.4 187.6C358.9 189.5 358.9 191.7 359.4 194.2C359.7 195.8 361.1 196.9 362.7 196.8C368.3 196.5 373.9 196.4 379.3 196.4C384.7 196.4 388.2 196.4 396.2 196.7C397.6 196.7 398.9 195.8 399.3 194.5C400.1 192.1 400.1 189.7 399.3 187.4C398.9 186.2 397.9 185.4 396.7 185.2L386.4 183.9C386.2 180.6 386.1 176.1 386.1 170.6V111.5L420.3 198.7C420.8 199.9 422 200.7 423.3 200.7H426.9C428.2 200.7 429.4 199.9 429.9 198.7L465.6 107.9V170.7C465.6 176.3 465.5 180.8 465.3 184.1L456.3 185.4C455.3 185.5 454.4 186.2 453.9 187.1C453 188.9 452.9 191.2 453.6 194.5C453.9 196 455.2 197 456.7 197C464.3 196.8 470.8 196.7 475.8 196.7C480.8 196.7 488.9 196.8 494.7 197.1C496.3 197.1 497.7 196 498 194.5C498.5 191.9 498.4 189.8 498 187.9C497.7 186.6 496.6 185.7 495.3 185.5L486.9 184.5V105.7C486.9 100.1 487 95.5999 487.2 92.2999L496.2 90.9999C497.4 90.7999 498.4 89.9999 498.8 88.7999C499.6 86.4999 499.6 84.0999 498.8 81.7999C498.4 80.4999 497 79.4999 495.7 79.5999L495.5 79.2999Z" fill="white"/>
<path d="M607.901 95.7999C603.201 89.9999 596.901 85.3999 589.201 81.8999C581.601 78.4999 572.901 76.7999 563.501 76.7999C554.101 76.7999 542.201 79.6999 533.101 85.5999C524.101 91.3999 517.001 99.2 512.101 108.7C507.201 118.2 504.701 128.6 504.701 139.7C504.701 150.8 506.001 154.4 508.401 161.3C510.901 168.2 514.501 174.5 519.101 180.2C523.801 186 530.101 190.6 537.801 194.1C545.401 197.5 554.001 199.2 563.401 199.2C580.501 199.2 594.701 193.1 605.701 180.9C616.701 168.9 622.201 154 622.201 136.6C622.201 119.2 620.901 121.7 618.501 114.8C616.001 107.9 612.401 101.5 607.801 95.7999H607.901ZM599.301 136.1C599.301 145.1 598.001 153.4 595.501 160.7C593.101 167.8 589.001 173.7 583.401 178.4C577.901 183 571.301 185.2 563.301 185.2C555.301 185.2 548.901 183 543.401 178.4C537.901 173.8 533.901 167.9 531.501 160.9C529.001 153.6 527.801 145.3 527.801 136.2C527.801 123.1 530.901 112 537.101 103.4C543.101 94.9999 551.701 90.8999 563.301 90.8999C574.901 90.8999 578.101 92.9999 583.601 97.0999C589.101 101.3 593.101 106.7 595.501 113.2C598.001 119.9 599.301 127.6 599.301 136.2V136.1Z" fill="white"/>
<path d="M729.7 177C728.6 173.8 727 171.5 724.8 170.1C723.6 169.3 722 169.4 720.9 170.4C716.5 174.4 711.3 177.7 705.4 180.1C699.6 182.5 693.5 183.7 687.3 183.7C681.1 183.7 677.8 182.6 673.8 180.3C669.8 178 666.3 174.8 663.4 170.6C660.5 166.4 658.2 161.3 656.6 155.5C655 149.6 654.1 143.1 654.1 136.1C654.1 129.1 654.9 123.4 656.6 117.6C658.2 111.9 660.6 106.9 663.7 102.8C666.7 98.6999 670.4 95.3999 674.6 92.9999C678.8 90.6999 683.5 89.4999 688.8 89.4999C696.9 89.4999 703.6 90.9999 708.5 93.7999L712.7 115.6C712.9 116.8 713.8 117.7 714.9 118.1C717.2 118.8 720.3 118.9 724.3 118.1C725.8 117.8 727 116.5 727 114.9V88.2999C727 87.0999 726.4 85.9999 725.3 85.4999C714.6 79.6999 702.9 76.7999 690.5 76.7999C678.1 76.7999 672.4 78.5999 664.9 82.0999C657.4 85.5999 651.1 90.2999 646 96.0999C640.9 101.9 637.1 108.5 634.4 115.9C631.8 123.2 630.5 130.8 630.5 138.4C630.5 146 631.6 153.4 633.9 160.5C636.2 167.8 639.7 174.3 644.4 180C649.1 185.8 655.1 190.4 662.3 193.9C669.5 197.4 677.9 199.1 687.4 199.1C701.4 199.1 715.3 192.7 728.7 180.2C729.6 179.3 729.9 178 729.6 176.8L729.7 177Z" fill="white"/>
<path d="M837.8 185.2L828.5 184.1L788.9 77.7C788.4 76.4 787.2 75.6 785.9 75.6H781C779.7 75.6 778.5 76.4 778 77.7L742.2 173.3C740.1 179 738.6 182.1 737.7 183.9L730 185.3C728.8 185.5 727.9 186.3 727.5 187.5C726.7 189.9 726.7 192.3 727.5 194.6C727.9 195.9 729.2 196.8 730.5 196.8C738.2 196.6 743.2 196.5 745.4 196.5C749.3 196.5 754.2 196.6 760 196.9C761.6 196.9 763 195.8 763.3 194.3C763.8 191.7 763.7 189.6 763.3 187.7C763 186.4 761.9 185.5 760.6 185.3L753.3 184.4L763.5 155.9H795.1L805.2 184.2L797.6 185.3C796.4 185.5 795.4 186.3 795 187.5C794.2 189.9 794.2 192.3 795 194.6C795.4 195.9 796.7 196.8 798 196.8C805.6 196.6 812.2 196.5 817.6 196.5C823 196.5 831.3 196.6 837 196.9C837 196.9 837.1 196.9 837.2 196.9C838.7 196.9 840.1 195.8 840.4 194.3C840.9 191.7 840.8 189.6 840.4 187.7C840.1 186.4 839 185.5 837.7 185.3L837.8 185.2ZM781.8 117.8L790.4 142.4H768.4L777.3 117.8C778.2 115.4 778.9 113.2 779.6 111.1C780.3 113.4 781 115.6 781.8 117.8Z" fill="white"/>
<path d="M985.701 79.6001C976.001 80.3001 964.401 80.3001 952.401 79.7001C950.901 79.7001 949.601 80.5001 949.201 81.9001C948.401 84.3001 948.401 86.6001 949.201 89.0001C949.601 90.2001 950.601 91.0001 951.801 91.2001L962.101 92.5001C962.301 95.8001 962.401 100.3 962.401 105.9V156C962.401 156.9 962.401 157.8 962.401 158.7C961.901 157.9 961.401 157.2 960.901 156.6L905.301 80.8C904.701 80 903.701 79.5001 902.701 79.5001H875.501C874.101 79.5001 872.901 80.4001 872.501 81.7001C871.701 84.0001 871.701 86.3001 872.501 88.6001C872.901 89.7001 873.901 90.6001 875.101 90.7001L884.101 92.0001C884.301 95.3001 884.401 99.8001 884.401 105.4V184L874.601 185.1C873.301 185.2 872.201 186.2 871.801 187.5C871.301 189.4 871.301 191.6 871.801 194.1C872.101 195.6 873.401 196.7 875.001 196.7C876.601 196.7 875.101 196.7 875.201 196.7C880.901 196.4 886.501 196.3 891.801 196.3C897.101 196.3 900.701 196.3 908.701 196.6C910.101 196.6 911.401 195.7 911.801 194.4C912.601 192 912.601 189.6 911.801 187.3C911.401 186.1 910.401 185.3 909.201 185.1L898.901 183.8C898.701 180.5 898.601 176 898.601 170.5V111C898.601 109.7 898.601 108.5 898.601 107.3C899.901 109.2 901.101 110.9 902.301 112.4L963.501 195.1C964.101 195.9 965.101 196.4 966.101 196.4H973.501C975.301 196.4 976.701 195 976.701 193.2V92.3L986.501 91.2001C987.801 91.1001 988.901 90.1 989.301 88.8C989.801 86.9 989.801 84.7001 989.301 82.2001C989.001 80.6001 987.501 79.5001 985.901 79.6001H985.701Z" fill="url(#paint0_linear_9116_1567)"/>
<path d="M1078.2 157.9C1075.7 157.4 1073.5 157.5 1071.7 157.9C1070.6 158.2 1069.7 159.1 1069.4 160.2L1063.5 183.1H1027.6V141.7L1044.1 142L1046.6 153.9C1046.8 155 1047.6 155.9 1048.7 156.3C1051 157.1 1053.4 157.1 1055.7 156.3C1057.1 155.8 1058 154.5 1057.9 153.1C1057.6 147.4 1057.5 141.4 1057.5 135.3C1057.5 129.2 1057.7 122.8 1058 117.7C1058.1 116.1 1057 114.6 1055.4 114.3C1052.9 113.8 1050.7 113.9 1048.9 114.3C1047.8 114.6 1046.9 115.5 1046.6 116.7L1044 127.9L1027.6 128.2V92.9001H1059.4L1065.3 115.8C1065.6 116.9 1066.5 117.8 1067.6 118.1C1069.5 118.6 1071.6 118.6 1074.1 118.1C1075.6 117.8 1076.7 116.5 1076.7 114.9V82.7001C1076.6 80.9001 1075.1 79.5001 1073.4 79.5001H1017.4L998.4 79.1001C997 79.1001 995.8 80 995.3 81.3C994.5 83.6 994.5 85.9001 995.3 88.2001C995.7 89.3001 996.7 90.2 997.9 90.3L1006.4 91.5001V170.8C1006.4 175.8 1006.3 180.3 1006 184.4L997.1 185.6C995.9 185.8 994.9 186.6 994.5 187.7C993.7 190 993.7 192.3 994.5 194.6C994.9 195.9 996.2 196.8 997.5 196.8L1017.3 196.4H1077.5C1079.3 196.4 1080.7 195 1080.7 193.2V161C1080.8 159.4 1079.7 158.1 1078.2 157.8V157.9Z" fill="url(#paint1_linear_9116_1567)"/>
<path d="M1346 87.5001V82.5001C1346 81.6001 1345.6 80.8001 1345 80.2001C1344.4 79.6001 1343.5 79.3001 1342.6 79.3001C1336.7 79.6001 1331.8 79.7001 1327.8 79.7001C1323.8 79.7001 1318.3 79.5001 1313.3 79.2001C1312.4 79.2001 1311.5 79.4001 1310.9 80.0001C1310.2 80.6001 1309.9 81.5001 1309.9 82.3001V87.4001C1309.9 89.0001 1311.1 90.4001 1312.7 90.6001L1320.1 91.5001L1302 148.9C1300.6 153.5 1299.4 157.5 1298.4 160.8C1297.4 157.1 1296.2 153 1294.8 148.4L1276.3 91.7001L1284 90.6001C1285.2 90.4001 1286.2 89.6001 1286.6 88.4001C1287.4 86.1001 1287.4 83.7001 1286.6 81.4001C1286.1 80.0001 1284.9 79.1001 1283.4 79.2001C1277.5 79.5001 1270.9 79.6001 1264 79.6001C1257.1 79.6001 1249.9 79.4001 1244.9 79.1001C1243.3 79.0001 1241.8 80.1001 1241.5 81.7001C1241 84.2001 1241.1 86.4001 1241.5 88.2001C1241.8 89.5001 1242.9 90.4001 1244.2 90.6001L1253.4 91.7001L1259.1 108.3L1244.2 149.4C1242.4 154.2 1240.8 158.7 1239.5 162.7C1238.4 158.5 1237.3 154.1 1236 149.6L1218.7 91.7001L1226.5 90.6001C1227.7 90.4001 1228.7 89.6001 1229.1 88.4001C1229.9 86.1001 1229.9 83.7001 1229.1 81.4001C1228.6 80.0001 1227.3 79.1001 1225.9 79.2001C1220 79.5001 1213.3 79.6001 1205.9 79.6001C1198.5 79.6001 1191.3 79.4001 1186.3 79.1001C1185.7 79.1001 1185.1 79.2001 1184.6 79.5001H1088.8C1087 79.5001 1085.6 80.9001 1085.6 82.7001V114.9C1085.5 116.5 1086.6 117.8 1088.1 118.1C1090.6 118.6 1092.8 118.5 1094.6 118.1C1095.7 117.8 1096.6 116.9 1096.9 115.8L1102.8 92.9001H1126.3V170.5C1126.3 176.1 1126.2 180.6 1126 183.9L1115.7 185.2C1114.5 185.4 1113.4 186.2 1113.1 187.4C1112.3 189.8 1112.3 192.2 1113.1 194.5C1113.5 195.8 1114.8 196.7 1116.1 196.7C1133.5 196.3 1147.9 196.4 1158.2 196.8C1158.2 196.8 1158.3 196.8 1158.4 196.8C1159.9 196.8 1161.3 195.7 1161.6 194.1C1162 191.5 1162 189.4 1161.6 187.5C1161.3 186.2 1160.2 185.2 1158.8 185.1L1147.7 184V92.8001H1170.9L1176.8 115.7C1177.1 116.8 1178 117.7 1179.1 118C1181 118.5 1183.1 118.5 1185.6 118C1187.1 117.7 1188.2 116.4 1188.2 114.8V90.8001C1188.1 90.8001 1195.1 91.7001 1195.1 91.7001L1230.4 198.3C1230.8 199.6 1232 200.4 1233.3 200.5H1237C1237 200.6 1237 200.6 1237.1 200.6C1238.4 200.6 1239.6 199.8 1240.1 198.5L1266.1 129L1289.8 198.2C1290.2 199.5 1291.5 200.4 1292.8 200.4H1296.4C1297.8 200.4 1299 199.5 1299.4 198.2L1330.9 102.4C1333 96.7001 1334.5 93.6001 1335.4 91.8001L1343.1 90.4001C1344.6 90.1001 1345.7 88.8001 1345.7 87.2001L1346 87.5001Z" fill="url(#paint2_linear_9116_1567)"/>
<path d="M1445 95.8C1440.3 90 1434 85.4001 1426.3 81.9001C1418.7 78.5001 1410 76.8 1400.6 76.8C1391.2 76.8 1379.3 79.7001 1370.2 85.6001C1361.2 91.4001 1354.2 99.2001 1349.2 108.7C1344.3 118.2 1341.8 128.6 1341.8 139.7C1341.8 150.8 1343.1 154.4 1345.5 161.3C1348 168.2 1351.6 174.5 1356.2 180.2C1360.9 186 1367.2 190.6 1374.9 194.1C1382.5 197.5 1391.1 199.2 1400.5 199.2C1417.6 199.2 1431.8 193.1 1442.8 180.9C1453.8 168.9 1459.3 154 1459.3 136.6C1459.3 119.2 1458 121.7 1455.6 114.8C1453.1 107.9 1449.5 101.5 1444.9 95.8H1445ZM1436.4 136.1C1436.4 145.1 1435.1 153.4 1432.6 160.7C1430.2 167.8 1426.1 173.7 1420.5 178.4C1415 183 1408.4 185.2 1400.4 185.2C1392.4 185.2 1386 183 1380.5 178.4C1375 173.8 1371 167.9 1368.6 160.9C1366.1 153.6 1364.9 145.3 1364.9 136.2C1364.9 123.1 1368 112 1374.2 103.4C1380.2 95.0001 1388.8 90.9001 1400.4 90.9001C1412 90.9001 1415.2 93.0001 1420.7 97.1001C1426.2 101.3 1430.2 106.7 1432.6 113.2C1435.1 119.9 1436.4 127.6 1436.4 136.2V136.1Z" fill="url(#paint3_linear_9116_1567)"/>
<path d="M1670.6 187.2C1670.3 185.9 1669.2 184.9 1667.8 184.7L1658.1 183.7C1654.7 180.2 1651.2 175.9 1647.5 170.7L1617 130.4L1639.2 103.5C1643 99.0001 1646.9 95.2001 1650.7 92.1001L1659.2 90.6001C1660.4 90.4001 1661.3 89.6001 1661.7 88.5001C1662.5 86.2001 1662.5 83.8001 1661.7 81.5001C1661.2 80.1001 1659.9 79.2 1658.5 79.3C1652.6 79.6 1647.3 79.7001 1642.6 79.7001C1637.9 79.7001 1631.9 79.5001 1626.9 79.2001C1625.3 79.1001 1623.8 80.2 1623.5 81.8C1623 84.3 1623.1 86.5 1623.5 88.3C1623.8 89.6 1624.9 90.5001 1626.2 90.7001L1631.7 91.4001L1601.2 129.4H1598.6V105.4C1598.6 99.8001 1598.7 95.3001 1598.9 92.0001L1607.9 90.7001C1609.1 90.5001 1610.1 89.7001 1610.5 88.5001C1611.3 86.2001 1611.3 83.8001 1610.5 81.5001C1610 80.1001 1608.8 79.2 1607.3 79.3C1601.4 79.6 1595 79.7001 1588.3 79.7001C1581.6 79.7001 1574.5 79.5001 1569.5 79.2001C1567.9 79.1001 1566.4 80.2 1566.1 81.8C1565.6 84.3 1565.7 86.5 1566.1 88.3C1566.4 89.6 1567.5 90.5001 1568.8 90.7001L1577.2 91.7001V170.5C1577.2 176.1 1577.1 180.6 1576.9 183.9L1567.9 185.2C1567.3 185.2 1566.8 185.5 1566.3 185.9C1565.8 185.4 1565.2 185 1564.5 184.9L1555.7 183.7C1555.5 183.4 1555.2 183.1 1555 182.8C1554.6 182.3 1553.9 181.1 1552.3 178.4C1551 176.1 1549.6 173.6 1548 170.7C1546.4 167.8 1543.9 163.4 1540.4 157.4C1537.5 152.4 1534.4 147.2 1531.1 141.6C1536.8 139.1 1541.5 135.6 1545.2 131.3C1549.9 125.9 1552.2 119.7 1552.2 113C1552.2 102.1 1548.8 93.5 1542.2 87.3C1535.5 81.1 1524.9 78.0001 1509.9 78.0001C1494.9 78.0001 1495.5 78.2001 1487.2 78.6001C1479 79.0001 1473 79.2001 1469.2 79.2001C1465.4 79.2001 1466.3 80.3 1466 81.8C1465.5 84.3 1465.6 86.5 1466 88.3C1466.3 89.6 1467.4 90.5001 1468.7 90.7001L1477.1 91.7001V170.5C1477.1 176.1 1477 180.6 1476.8 183.9L1467.8 185.2C1466.6 185.4 1465.6 186.2 1465.2 187.4C1464.4 189.8 1464.4 192.2 1465.2 194.5C1465.6 195.8 1466.8 196.7 1468.3 196.7C1475.9 196.5 1482.6 196.4 1488.1 196.4C1493.6 196.4 1501.9 196.5 1507.7 196.8C1507.7 196.8 1507.8 196.8 1507.9 196.8C1509.4 196.8 1510.8 195.7 1511.1 194.2C1511.6 191.6 1511.5 189.5 1511.1 187.6C1510.8 186.3 1509.7 185.4 1508.3 185.2L1498.5 184.1V145.7C1502.2 146 1505.9 146.2 1509.6 146.2H1510C1512.1 148.8 1514.3 152.3 1516.6 156.8L1537.6 194.8C1538.2 195.8 1539.2 196.5 1540.4 196.5H1564C1564.8 196.5 1565.5 196.2 1566 195.8C1566.6 196.4 1567.4 196.8 1568.3 196.8C1575.9 196.6 1582.4 196.5 1587.4 196.5C1592.4 196.5 1600.5 196.6 1606.3 196.9C1606.3 196.9 1606.4 196.9 1606.5 196.9C1608 196.9 1609.4 195.8 1609.7 194.3C1610.2 191.7 1610.1 189.6 1609.7 187.7C1609.4 186.4 1608.3 185.5 1607 185.3L1598.6 184.3V142.9H1601.7L1624 173.6C1627.6 178.6 1629.8 181.9 1631.3 184.1L1624.6 185.2C1623.4 185.4 1622.3 186.3 1622 187.6C1621.4 190 1621.4 192.4 1622.2 194.6C1622.7 196 1624.1 196.9 1625.5 196.7C1629.6 196.3 1635 196.2 1641.7 196.2C1648.4 196.2 1653.6 196.3 1667.4 196.6C1669 196.6 1670.3 195.4 1670.6 193.9C1670.9 191.6 1670.9 189.5 1670.4 187.4L1670.6 187.2ZM1498.8 105.4C1498.8 100.2 1499 95.3 1499.4 90.8C1501.8 90.5 1504.3 90.3 1506.7 90.3C1515 90.3 1520.8 92.2001 1524.2 95.9001C1527.6 99.7001 1529.4 105.3 1529.4 112.4C1529.4 119.5 1529.1 117.6 1528.4 120C1527.7 122.4 1526.7 124.7 1525.2 127C1523.9 129 1521.8 130.7 1519 132C1516.1 133.3 1512.4 134 1508.2 134C1504 134 1501.4 134 1498.9 133.7V105.4H1498.8Z" fill="url(#paint4_linear_9116_1567)"/>
</g>
</g>
<defs>
<linearGradient id="paint0_linear_9116_1567" x1="871.426" y1="138.7" x2="1670.81" y2="138.7" gradientUnits="userSpaceOnUse">
<stop stop-color="white"/>
<stop offset="1" stop-color="#895B4A"/>
</linearGradient>
<linearGradient id="paint1_linear_9116_1567" x1="871.425" y1="138.7" x2="1670.81" y2="138.7" gradientUnits="userSpaceOnUse">
<stop stop-color="white"/>
<stop offset="1" stop-color="#895B4A"/>
</linearGradient>
<linearGradient id="paint2_linear_9116_1567" x1="871.426" y1="138.7" x2="1670.81" y2="138.7" gradientUnits="userSpaceOnUse">
<stop stop-color="white"/>
<stop offset="1" stop-color="#895B4A"/>
</linearGradient>
<linearGradient id="paint3_linear_9116_1567" x1="871.427" y1="138.7" x2="1670.81" y2="138.7" gradientUnits="userSpaceOnUse">
<stop stop-color="white"/>
<stop offset="1" stop-color="#895B4A"/>
</linearGradient>
<linearGradient id="paint4_linear_9116_1567" x1="871.425" y1="138.7" x2="1670.81" y2="138.7" gradientUnits="userSpaceOnUse">
<stop stop-color="white"/>
<stop offset="1" stop-color="#895B4A"/>
</linearGradient>
<clipPath id="clip0_9116_1567">
<rect width="1671" height="265" fill="white"/>
</clipPath>
</defs>
</svg>
