<?xml version="1.0" encoding="UTF-8"?>
<svg id="Layer_1" data-name="Layer 1" xmlns="http://www.w3.org/2000/svg" xmlns:xlink="http://www.w3.org/1999/xlink" viewBox="0 0 1920 1080">
  <defs>
    <style>
      .cls-1 {
        fill: #fff;
      }

      .cls-2 {
        mask: url(#mask);
      }

      .cls-3 {
        fill: #202020;
      }

      .cls-4 {
        fill: url(#linear-gradient);
      }
    </style>
    <mask id="mask" x="447.78" y="421.85" width="1404.47" height="197.59" maskUnits="userSpaceOnUse">
      <g>
        <path class="cls-1" d="M546.55,492.03c6.52-14.74,10.4-24.05,10.4-29.01v-.78c6.98.31,13.19.62,18.93.62,3.88,0,9.62-.31,17.22-.62v6.83c-10.55,0-12.88,2.02-12.88,10.24,0,1.71.16,10.24,1.09,25.6l1.09,18.46c1.24,19.86,2.17,31.65,3.1,35.37.93,3.1,4.34,4.81,9.62,4.81h1.86v6.83c-10.55-.62-18.62-.78-23.74-.78-4.81,0-12.26.31-22.34.78v-6.83h2.33c8.22,0,11.02-2.33,11.02-9.62,0-3.1-.16-6.05-.31-8.69l-3.1-60.51-27.46,62.06c-3.26,7.45-6.36,14.58-7.91,22.5h-8.22c-1.09-5.12-3.1-10.24-5.59-16.14l-27.77-66.56c-3.1,35.37-4.5,56.63-4.5,63.77,0,10.24,1.71,13.19,10.86,13.19h2.17v6.83c-8.22-.47-14.89-.78-20.17-.78-3.26,0-9.46.31-18.77.78v-6.83c1.24.15,2.33.31,3.26.31,11.79,0,10.55-11.17,13.19-39.87l1.71-18.15c1.55-15.83,2.02-24.82,2.02-27.15,0-7.76-2.64-9.62-10.55-9.62h-2.02v-6.83c7.45.47,13.34.62,17.69.62s10.55-.31,18.93-.78v.62c0,7.91,11.17,31.65,29.01,74.01l19.86-44.68Z"/>
        <path class="cls-1" d="M703.09,472.95c12.26,10.71,19.24,26.07,19.24,42.67,0,33.2-25.44,57.56-58.65,57.56-17.53,0-31.65-5.74-42.51-17.07-10.08-10.55-15.52-24.51-15.52-39.72,0-16.76,6.67-31.5,19.39-42.51,10.55-9.15,24.98-14.43,39.1-14.43,15.83,0,28.24,4.19,38.94,13.5ZM662.91,470.78c-19.86,0-33.82,15.67-33.82,42.98,0,29.63,15.36,47.79,36.15,47.79s33.67-15.67,33.67-43.29c0-29.32-15.05-47.48-36-47.48Z"/>
        <path class="cls-1" d="M829.38,470.78c0,7.76.78,15.52,1.86,23.27l-7.45,1.24c-1.71-15.05-13.5-23.74-31.81-23.74-23.27,0-36.93,14.89-36.93,41.89,0,29.32,16.29,47.17,40.18,47.17,15.52,0,26.22-6.98,32.89-21.1l6.67,3.1c-3.88,7.6-6.98,15.21-9.15,22.96-12.41,5.12-24.2,7.6-34.75,7.6-35.37,0-59.11-22.96-59.11-56.32s26.07-57.1,60.66-57.1c12.72,0,24.67,2.02,37.08,6.21,0,1.55-.16,3.26-.16,4.81Z"/>
        <path class="cls-1" d="M907.11,461.78c20.17,59.11,32.89,90.45,34.6,94.33,2.33,5.43,5.43,7.45,11.02,7.45h1.55v6.83c-10.08-.47-17.84-.78-23.27-.78s-13.34.31-24.05.78v-6.83h1.4c7.45,0,10.08-1.24,10.08-6.21,0-1.86-.47-4.03-1.24-6.52l-6.21-18.31c-10.4-.16-17.07-.31-20.17-.31-4.5,0-10.55.15-18.62.31-4.5,11.48-7.76,18.77-7.76,23.58,0,5.43,2.95,7.45,9.62,7.45h1.4v6.83c-9.31-.47-16.45-.78-21.41-.78-4.03,0-10.4.31-18.93.78v-6.83c7.14,0,11.02-2.33,14.27-8.22,1.86-3.72,16.29-34.91,39.25-93.56h18.46ZM876.23,521.82c5.74.16,10.71.16,14.74.16,4.81,0,10.24,0,16.29-.16l-14.58-41.89-16.45,41.89Z"/>
        <path class="cls-1" d="M1014.62,463.02c4.03,0,9.62-.31,16.91-.78,1.55,4.34,4.5,8.53,8.53,13.19l55.7,65.78c-.46-39.41-.31-61.44-1.4-65.78-1.4-4.96-4.03-6.36-10.86-6.36h-2.48v-6.67c8.69.47,15.21.78,19.7.78,5.12,0,11.79-.31,19.86-.78v6.67h-1.4c-6.05,0-9,1.09-10.39,4.96-1.24,3.72-1.4,15.36-1.71,35.37l-.31,16.45c-.31,19.55-.31,30.1-.31,31.65,0,4.66.31,9.31,1.09,13.96h-14.89c-1.55-3.41-4.96-7.6-9.31-12.57l-61.13-71.52c0,42.2.31,65.47,1.55,69.82,1.4,4.96,4.19,6.36,10.86,6.36h2.33v6.83c-9-.47-15.67-.78-20.33-.78-4.03,0-10.71.31-20.01.78v-6.83c1.09.15,2.17.15,3.1.15,12.41,0,10.71-10.39,11.17-40.03l.16-16.14c.16-13.03.31-21.57.31-25.91,0-9.46-2.64-12.72-11.79-12.72-.93,0-1.86.15-2.79.15v-6.83c7.6.47,13.5.78,17.84.78Z"/>
        <path class="cls-1" d="M1169.92,463.17c13.96,0,27.77-.16,41.27-1.09.15,8.84.78,17.38,1.86,25.91l-6.83.93c-1.55-13.96-8.38-16.14-27-16.14-3.72,0-9.93.16-18.93.47-.16,13.34-.31,25.6-.47,36.77h2.17c8.07,0,14.58.16,19.7.16,12.26,0,16.91-1.24,17.22-9.93l6.21.62c-.62,6.98-1.09,12.57-1.09,17.22,0,2.79.16,6.98.47,12.88l-6.36.47v-.93c0-10.08-5.74-11.02-21.41-11.02h-17.07v8.69c0,11.79.16,21.88.31,30.72,3.57.47,10.08.93,19.7.93,20.01,0,27.93-1.24,33.82-18.31l6.98,2.17c-3.1,9.15-5.58,18-7.45,26.69-18-.62-33.67-1.09-47.17-1.09-11.48,0-23.89.46-37.24,1.09l-3.26.16v-6.83c.93.16,1.86.16,2.79.16,10.55,0,10.86-6.83,10.86-24.36l.16-31.5c.15-6.52.31-11.95.31-16.14,0-5.74-.16-9.46-.16-11.17,0-8.53-2.48-11.79-10.71-11.79h-1.71v-6.83c18.62.78,32.89,1.09,42.98,1.09Z"/>
        <path class="cls-1" d="M1252.91,563.56c6.36,0,9.46-1.09,10.86-4.96,1.4-3.41,1.4-16.91,1.4-40.65v-43.29h-13.03c-14.89,0-20.01,2.64-22.34,16.14l-7.14-1.55c2.17-9.31,3.57-18.46,3.88-27.93,4.81,1.71,13.19,1.86,25.75,1.86h45.46c14.12,0,23.27-.16,27.46-1.86v2.33c0,8.53.78,17.07,2.02,25.6l-6.83,1.09c-1.86-13.5-6.67-15.67-20.79-15.67h-13.34c-.31,23.74-.31,40.8-.31,51.2v14.12c0,10.24.16,16.76,1.86,20.01,1.55,2.64,4.81,3.57,10.4,3.57h2.64v6.83c-10.55-.47-19.24-.93-25.91-.93-5.27,0-13.5.31-24.82.93v-6.83h2.79Z"/>
        <path class="cls-1" d="M1405.11,492.81l-4.34-13.65c-2.48-7.76-4.34-10.24-10.4-10.24-1.09,0-2.02.15-2.95.15v-6.83c8.84.47,16.45.78,22.5.78,4.65,0,11.79-.16,21.57-.78v6.83c-1.09,0-2.02-.15-2.95-.15-5.74,0-7.91,1.55-7.91,6.21,0,2.48,1.24,6.98,3.41,13.5l18.31,57.25,3.1-9.15c12.41-35.22,19.55-55.54,19.55-61.44,0-4.81-2.64-6.21-8.84-6.21h-2.17v-6.83c7.91.47,14.27.78,19.08.78s11.02-.31,18.93-.78v6.83c-.78-.15-1.55-.15-2.33-.15-10.24,0-12.1,13.81-22.5,40.96l-6.52,17.07c-6.52,17.07-12.41,31.65-15.98,44.53h-14.27c-1.4-6.05-2.79-10.55-4.19-14.58l-15.98-48.1-18.62,47.01c-1.86,4.65-3.88,9.77-5.28,15.67h-14.27c-1.09-5.74-6.36-20.01-14.58-42.82l-7.6-21.1c-9.46-26.07-11.33-38.79-20.79-38.79-.78,0-1.55.16-2.48.31v-6.83c10.08.62,17.22.93,21.72.93,5.12,0,12.26-.47,21.57-.93v6.83h-1.71c-5.12,0-7.6,1.86-7.6,5.74,0,2.64,1.4,6.52,3.26,11.79l20.33,59.42,20.95-53.22Z"/>
        <path class="cls-1" d="M1587.87,472.95c12.26,10.71,19.24,26.07,19.24,42.67,0,33.2-25.45,57.56-58.65,57.56-17.53,0-31.65-5.74-42.51-17.07-10.08-10.55-15.51-24.51-15.51-39.72,0-16.76,6.67-31.5,19.39-42.51,10.55-9.15,24.98-14.43,39.1-14.43,15.83,0,28.24,4.19,38.94,13.5ZM1547.69,470.78c-19.86,0-33.82,15.67-33.82,42.98,0,29.63,15.36,47.79,36.15,47.79s33.67-15.67,33.67-43.29c0-29.32-15.05-47.48-35.99-47.48Z"/>
        <path class="cls-1" d="M1618.12,563.87c10.24,0,10.4-6.98,10.55-25.75l.31-30.56c.15-10.55.15-18.31.15-23.43,0-11.02-1.24-15.2-11.02-15.2h-1.55v-6.67c9,.47,16.45.78,22.65.78,10.24,0,18.46-.78,25.13-.78,26.07,0,40.5,11.95,40.5,29.01,0,11.48-6.67,20.79-20.33,27.46l13.5,20.95c10.4,16.14,16.29,24.98,25.91,24.98.62,0,1.09-.16,1.71-.16v6.36c-5.43.46-10.24.78-13.96.78-10.71,0-17.53-1.55-23.89-9.15-3.72-4.34-10.55-17.22-23.27-36.93-4.34.16-9.46.31-15.36.31v20.17c0,13.03.78,17.53,11.17,17.53h2.17v6.83c-9.93-.62-18.31-.78-25.13-.78-3.72,0-11.17.31-22.19.93v-6.83c1.09.16,2.02.16,2.95.16ZM1660.63,516.39c3.1,0,6.67-.16,10.55-.47,8.84-5.74,12.72-12.72,12.72-22.34,0-12.26-8.84-21.26-23.43-21.26-3.26,0-6.98.16-11.17.93-.16,15.67-.16,29.94-.16,42.67,5.28.31,9,.47,11.48.47Z"/>
        <path class="cls-1" d="M1752.48,463.17c5.28,0,12.88-.31,22.65-.78v6.67h-1.55c-11.17,0-11.48,5.28-11.48,21.72v51.2c0,16.14.15,21.72,11.17,21.72.78,0,1.71-.15,2.79-.15v6.83c-10.24-.47-18.15-.93-24.05-.93-4.96,0-12.88.31-23.58.93v-6.83c1.09.15,2.02.15,2.95.15,9.62,0,10.4-6.21,10.4-22.81v-7.76c0-2.95-.16-5.9-.16-25.75,0-7.45.16-13.5.16-18.62,0-14.43-.93-19.86-10.4-19.86-.62,0-1.4.15-2.17.15v-6.83c10.86.62,18.62.93,23.27.93ZM1815.62,463.02c4.96,0,11.64-.31,19.86-.78v6.83h-1.4c-9,0-13.19,4.03-20.48,11.02l-31.19,29.94,33.51,35.06c10.86,11.33,16.29,18.62,24.36,18.62.78,0,1.4,0,2.17-.15v6.83c-7.6-.47-13.65-.78-18.15-.78-3.26,0-9.15.31-17.53.78.15-.31.15-.78.15-1.09,0-6.67-16.6-21.57-44.84-51.82l27.93-29.48c7.91-8.22,12.41-13.03,12.41-15.21,0-2.64-2.02-3.72-6.52-3.72h-1.71v-6.83c8.38.47,15.36.78,21.41.78Z"/>
      </g>
    </mask>
    <linearGradient id="linear-gradient" x1="452.47" y1="454.58" x2="1850.69" y2="587.01" gradientUnits="userSpaceOnUse">
      <stop offset=".44" stop-color="#000"/>
      <stop offset=".47" stop-color="#0d0807"/>
      <stop offset=".59" stop-color="#4f3329"/>
      <stop offset=".68" stop-color="#784e3f"/>
      <stop offset=".73" stop-color="#885948"/>
    </linearGradient>
  </defs>
  <g>
    <path class="cls-3" d="M374.88,417.39c0-18.11-14.44-30.99-32.26-28.77-17.82,2.23-32.26,18.72-32.26,36.83v186.14s-103.96,39.27-109.08,40.99c6.27-1.28,173.6-17.75,173.6-17.75v-217.44Z"/>
    <path class="cls-3" d="M272.84,469.19c0-16.67-13.29-28.52-29.69-26.47h0c-16.4,2.05-29.69,17.22-29.69,33.89v100.37l.19.07-76.69,34.43,135.88-13.34v-128.96Z"/>
    <path class="cls-3" d="M182.49,511.9c0-14.58-11.62-24.94-25.96-23.15h0c-14.34,1.79-25.96,15.06-25.96,29.64v29.53l-50.19,28.83,102.12-10.32v-54.52Z"/>
    <path class="cls-3" d="M201.29,652.59c-.09.02-.16.03-.18.05-.05.03.01,0,.18-.05Z"/>
  </g>
  <g class="cls-2">
    <rect class="cls-4" x="447.78" y="421.85" width="1404.47" height="197.59"/>
  </g>
</svg>