<?xml version="1.0" encoding="UTF-8"?>
<svg version="1.1" xmlns="http://www.w3.org/2000/svg" width="68" height="68">
<path d="M0 0 C2.8125 0.1875 2.8125 0.1875 5 1 C4.48888889 5.6 4.48888889 5.6 1.9375 7.6875 C-0.41566593 10.4961174 -0.164627 11.32224313 0 14.875 C0.18252028 19.86145415 -0.64900196 22.1334638 -4 26 C-11.39620126 33.93979734 -11.39620126 33.93979734 -15.6015625 34.09765625 C-17.09816406 34.08025391 -17.09816406 34.08025391 -18.625 34.0625 C-19.62789062 34.05347656 -20.63078125 34.04445312 -21.6640625 34.03515625 C-22.43492188 34.02355469 -23.20578125 34.01195312 -24 34 C-25.25236785 36.5047357 -24.87380571 37.85381912 -24.625 40.625 C-24.56822916 44.99004672 -25.3200014 47.0801636 -28.1875 50.375 C-31.47001199 53.66415675 -34.81473108 56.90736554 -39 59 C-40.60532426 58.94317436 -42.20965401 58.85573497 -43.8125 58.75 C-48.27747486 58.65466508 -48.27747486 58.65466508 -51.8125 61.5625 C-52.534375 62.366875 -53.25625 63.17125 -54 64 C-56.8125 63.8125 -56.8125 63.8125 -59 63 C-58.48888889 58.4 -58.48888889 58.4 -55.9375 56.3125 C-53.58433407 53.5038826 -53.835373 52.67775687 -54 49.125 C-54.18252028 44.13854585 -53.35099804 41.8665362 -50 38 C-42.60379874 30.06020266 -42.60379874 30.06020266 -38.3984375 29.90234375 C-36.90183594 29.91974609 -36.90183594 29.91974609 -35.375 29.9375 C-33.87066406 29.95103516 -33.87066406 29.95103516 -32.3359375 29.96484375 C-31.56507812 29.97644531 -30.79421875 29.98804687 -30 30 C-28.74763215 27.4952643 -29.12619429 26.14618088 -29.375 23.375 C-29.43177084 19.00995328 -28.6799986 16.9198364 -25.8125 13.625 C-22.52998801 10.33584325 -19.18526892 7.09263446 -15 5 C-13.39467574 5.05682564 -11.79034599 5.14426503 -10.1875 5.25 C-5.72252514 5.34533492 -5.72252514 5.34533492 -2.1875 2.4375 C-1.465625 1.633125 -0.74375 0.82875 0 0 Z M-16.1640625 13.96875 C-16.97617187 14.8040625 -17.78828125 15.639375 -18.625 16.5 C-19.85089844 17.75296875 -19.85089844 17.75296875 -21.1015625 19.03125 C-21.72804687 19.6809375 -22.35453125 20.330625 -23 21 C-22.67 21.66 -22.34 22.32 -22 23 C-20.35 22.67 -18.7 22.34 -17 22 C-17.33 23.98 -17.66 25.96 -18 28 C-14.84164893 26.60249952 -12.67727175 24.94801766 -10.25 22.5 C-9.63640625 21.8915625 -9.0228125 21.283125 -8.390625 20.65625 C-6.78565912 19.10515723 -6.78565912 19.10515723 -7 17 C-8.32 16.67 -9.64 16.34 -11 16 C-11.33 14.68 -11.66 13.36 -12 12 C-14.2410341 11.77568714 -14.2410341 11.77568714 -16.1640625 13.96875 Z M-40.1640625 37.8984375 C-40.97617187 38.71570312 -41.78828125 39.53296875 -42.625 40.375 C-43.44226563 41.18710937 -44.25953125 41.99921875 -45.1015625 42.8359375 C-47.21982158 44.77078597 -47.21982158 44.77078597 -47 47 C-45.68 47.33 -44.36 47.66 -43 48 C-42.67 49.32 -42.34 50.64 -42 52 C-38.78475695 50.59155282 -36.67816132 48.89655214 -34.25 46.375 C-33.32960938 45.42753906 -33.32960938 45.42753906 -32.390625 44.4609375 C-31.93171875 43.97882812 -31.4728125 43.49671875 -31 43 C-31.33 42.34 -31.66 41.68 -32 41 C-33.65 41.33 -35.3 41.66 -37 42 C-36.67 40.02 -36.34 38.04 -36 36 C-38.22921403 35.78017842 -38.22921403 35.78017842 -40.1640625 37.8984375 Z " fill="#ff57b7" transform="translate(61,2)"/>
</svg>
