<svg width="1148" height="48" viewBox="0 0 1148 48" fill="none" xmlns="http://www.w3.org/2000/svg">
<path d="M0 43.3488V5.04318H6.08486L21.1883 28.5366H18.0916L33.1407 5.04318H39.2799V43.3488H30.7502V19.4213L32.2715 19.8011L22.4379 35.1017H16.7877L7.00844 19.8011L8.47536 19.4213V43.3488H0ZM63.3149 43.9999C60.4174 43.9999 57.7372 43.4934 55.2743 42.4808C52.8475 41.4677 50.7105 40.0571 48.8635 38.2485C47.0164 36.4401 45.5857 34.3421 44.5713 31.9548C43.5574 29.5313 43.0503 26.927 43.0503 24.1418C43.0503 21.3203 43.5574 18.716 44.5713 16.3287C45.5857 13.9414 46.9982 11.8615 48.8092 10.0891C50.6201 8.28052 52.7388 6.88789 55.1657 5.91128C57.6286 4.89847 60.3088 4.39209 63.2063 4.39209C66.0677 4.39209 68.7119 4.89847 71.1382 5.91128C73.6011 6.88789 75.7381 8.28052 77.5491 10.0891C79.3966 11.8615 80.8273 13.9595 81.8412 16.3829C82.8556 18.7702 83.3623 21.3746 83.3623 24.196C83.3623 26.9812 82.8556 29.5856 81.8412 32.0091C80.8273 34.3964 79.4144 36.4943 77.6034 38.3028C75.7924 40.0754 73.6554 41.4677 71.1925 42.4808C68.7662 43.4934 66.1403 43.9999 63.3149 43.9999ZM63.2063 36.2411C65.4884 36.2411 67.4802 35.7347 69.1825 34.7219C70.9209 33.7091 72.2613 32.2984 73.203 30.4898C74.1448 28.6451 74.6155 26.529 74.6155 24.1418C74.6155 22.3331 74.3439 20.7055 73.8006 19.2586C73.2574 17.7755 72.4786 16.5096 71.4642 15.4605C70.4503 14.3754 69.2368 13.5616 67.8244 13.019C66.448 12.4402 64.9086 12.1508 63.2063 12.1508C60.9246 12.1508 58.9146 12.6573 57.1757 13.6701C55.4734 14.6467 54.1513 16.0393 53.21 17.8479C52.2682 19.6203 51.797 21.7183 51.797 24.1418C51.797 25.9503 52.0691 27.5961 52.6124 29.0791C53.1556 30.5622 53.9162 31.8463 54.894 32.9314C55.908 33.9804 57.1214 34.7943 58.5338 35.373C59.9468 35.9518 61.5039 36.2411 63.2063 36.2411ZM105.878 43.9456C103.016 43.9456 100.355 43.4573 97.8916 42.4808C95.4648 41.4677 93.3279 40.0571 91.4808 38.2485C89.6698 36.4401 88.2574 34.3421 87.243 31.9548C86.2291 29.5313 85.7219 26.927 85.7219 24.1418C85.7219 21.3565 86.2291 18.7702 87.243 16.3829C88.2574 13.9595 89.6698 11.8615 91.4808 10.0891C93.2918 8.31667 95.4105 6.94214 97.8373 5.96553C100.3 4.95272 102.962 4.44634 105.824 4.44634C108.866 4.44634 111.564 4.93462 113.919 5.91128C116.309 6.88789 118.392 8.22627 120.166 9.92632L114.462 15.6776C113.448 14.5924 112.217 13.7424 110.768 13.1275C109.355 12.5126 107.707 12.2051 105.824 12.2051C104.158 12.2051 102.618 12.4945 101.206 13.0733C99.8296 13.6158 98.6339 14.4116 97.62 15.4605C96.6422 16.5096 95.8633 17.7755 95.284 19.2586C94.7408 20.7416 94.4692 22.3694 94.4692 24.1418C94.4692 25.9503 94.7408 27.5961 95.284 29.0791C95.8633 30.5622 96.6422 31.8282 97.62 32.8772C98.6339 33.9261 99.8296 34.74 101.206 35.3188C102.618 35.8975 104.158 36.1869 105.824 36.1869C107.78 36.1869 109.482 35.8794 110.931 35.2645C112.38 34.6496 113.629 33.7995 114.68 32.7144L120.438 38.4656C118.591 40.1657 116.472 41.5042 114.082 42.4808C111.727 43.4573 108.993 43.9456 105.878 43.9456ZM119.671 43.3488L134.883 5.04318H142.598L157.647 43.3488H148.628L137.111 11.554H140.207L128.527 43.3488H119.671ZM128.309 36.4039V29.459H149.226V36.4039H128.309Z" fill="black"/>
<path d="M415.701 42.8238L400.194 22.996L415.213 4.78467H425.732L408.815 24.5585V21.1102L426.274 42.8238H415.701ZM392.548 42.8238V4.78467H401.061V42.8238H392.548Z" fill="black"/>
<path d="M366.914 27.1447V20.8947H375.012C376.715 20.8947 378.02 20.4637 378.925 19.6016C379.867 18.7395 380.339 17.5721 380.339 16.0994C380.339 14.7344 379.886 13.6029 378.979 12.705C378.074 11.807 376.77 11.358 375.066 11.358H366.914V4.78467H376.045C378.581 4.78467 380.81 5.26955 382.73 6.23941C384.65 7.17332 386.154 8.48441 387.241 10.1726C388.328 11.8608 388.872 13.8005 388.872 15.9916C388.872 18.2187 388.328 20.1763 387.241 21.8645C386.154 23.5168 384.632 24.81 382.676 25.7439C380.719 26.6778 378.418 27.1447 375.773 27.1447H366.914ZM360.391 42.8238V4.78467H368.925V42.8238H360.391ZM381.263 42.8238L369.305 26.4443L377.132 24.343L391.372 42.8238H381.263Z" fill="black"/>
<path d="M337.559 43.6078C334.656 43.6078 331.97 43.1013 329.503 42.0887C327.071 41.0756 324.93 39.6651 323.079 37.8565C321.228 36.048 319.794 33.95 318.778 31.5627C317.762 29.1392 317.254 26.5349 317.254 23.7496C317.254 20.9283 317.762 18.3239 318.778 15.9366C319.794 13.5493 321.21 11.4694 323.025 9.69703C324.839 7.88842 326.962 6.49584 329.394 5.51919C331.862 4.50638 334.547 4 337.45 4C340.317 4 342.966 4.50638 345.398 5.51919C347.866 6.49584 350.007 7.88842 351.822 9.69703C353.672 11.4694 355.106 13.5674 356.122 15.9908C357.138 18.3782 357.646 20.9825 357.646 23.8039C357.646 26.5891 357.138 29.1935 356.122 31.6169C355.106 34.0043 353.691 36.1022 351.876 37.9107C350.061 39.6833 347.92 41.0756 345.452 42.0887C343.021 43.1013 340.39 43.6078 337.559 43.6078ZM337.45 35.849C339.736 35.849 341.733 35.3426 343.438 34.3298C345.18 33.317 346.523 31.9063 347.466 30.0978C348.41 28.253 348.882 26.137 348.882 23.7496C348.882 21.9411 348.61 20.3133 348.065 18.8665C347.521 17.3835 346.741 16.1174 345.725 15.0685C344.709 13.9833 343.493 13.1695 342.077 12.6269C340.698 12.0482 339.156 11.7588 337.45 11.7588C335.164 11.7588 333.15 12.2652 331.408 13.278C329.702 14.2546 328.377 15.6472 327.434 17.4558C326.49 19.2282 326.018 21.3262 326.018 23.7496C326.018 25.5582 326.291 27.204 326.835 28.6871C327.379 30.1701 328.141 31.4542 329.122 32.5393C330.138 33.5883 331.353 34.4022 332.769 34.9809C334.184 35.5597 335.745 35.849 337.45 35.849Z" fill="black"/>
<path d="M278.597 42.8238L266.274 4.78467H274.743L283.754 34.0414H280.443L289.237 4.78467H295.914L304.709 34.0414H301.452L310.409 4.78467H318.823L306.5 42.8238H299.823L290.975 13.567H294.123L285.274 42.8238H278.597Z" fill="black"/>
<path d="M247.823 42.8238V5.32343H256.446V42.8238H247.823ZM235.934 11.9889L235.686 4.78467H268.583L270.196 11.9889H235.934Z" fill="black"/>
<path d="M208.627 42.8238V4.78467H217.26V42.8238H208.627ZM215.225 42.8238V35.4961H236.503V42.8238H215.225ZM215.225 26.9292V19.871H234.579V26.9292H215.225ZM215.225 11.9889V4.78467H236.228L236.862 11.9889H215.225Z" fill="black"/>
<path d="M171.372 42.8238V4.78467H177.391L179.963 12.3817V42.8238H171.372ZM198.021 42.8238L175.258 14.1058L177.391 4.78467L200.155 33.5026L198.021 42.8238ZM198.021 42.8238L195.723 35.2267V4.78467H204.313V42.8238H198.021Z" fill="black"/>
<g clip-path="url(#clip0_3313_5312)">
<mask id="mask0_3313_5312" style="mask-type:luminance" maskUnits="userSpaceOnUse" x="526" y="0" width="49" height="48">
<path d="M574.259 0H526.274V48H574.259V0Z" fill="white"/>
</mask>
<g mask="url(#mask0_3313_5312)">
<path d="M526.824 28.0999C529.093 23.8299 538.04 24.1599 546.818 28.8199C555.595 33.4899 560.863 40.7299 558.604 44.9999C556.335 49.2699 547.387 48.9399 538.61 44.2799C529.833 39.6099 524.554 32.3699 526.824 28.0999ZM565.512 5.94993C570.34 5.94993 574.259 14.0099 574.259 23.9499C574.259 33.8899 570.34 41.9499 565.512 41.9499C560.683 41.9499 556.764 33.8899 556.764 23.9499C556.764 14.0099 560.683 5.94993 565.512 5.94993ZM538.58 3.71993C547.357 -0.95007 556.305 -1.27007 558.574 2.99993C560.843 7.26993 555.565 14.5099 546.788 19.1799C538.01 23.8499 529.063 24.1699 526.794 19.8999C524.524 15.6299 529.803 8.38993 538.58 3.71993Z" fill="black"/>
</g>
<mask id="mask1_3313_5312" style="mask-type:luminance" maskUnits="userSpaceOnUse" x="583" y="5" width="74" height="37">
<path d="M656.274 5.9502H583.856V41.9502H656.274V5.9502Z" fill="white"/>
</mask>
<g mask="url(#mask1_3313_5312)">
<path d="M634.201 41.9502H628.932V5.9502H641.348C648.976 5.9502 654.944 9.4402 654.944 16.8602C654.944 24.2802 651.825 25.6702 646.777 26.7502C648.686 27.8802 650.846 30.0402 652.845 34.3602L656.274 41.9602H650.366L647.687 35.8902C645.537 31.6402 643.768 28.7502 638.719 28.7502H634.261L634.211 41.9602L634.201 41.9502ZM641.408 10.9002H634.321L634.271 24.0502H641.308C645.927 24.0502 649.316 21.6902 649.316 17.3402C649.316 12.9902 645.767 10.9002 641.418 10.9002H641.408Z" fill="black"/>
<path d="M619.365 5.9502H624.844V41.9502H619.365V5.9502Z" fill="black"/>
<path d="M583.856 41.9502L593.533 10.8602C594.593 7.5302 597.182 5.9502 600.141 5.9502C603.1 5.9502 605.749 7.5302 606.799 10.8602L616.476 41.9502H610.978L607.919 31.8102H592.344L589.304 41.9502H583.856ZM598.182 12.4402L593.843 26.9502H606.489L602.2 12.4402C601.831 11.3302 601.201 10.8002 600.191 10.8002C599.181 10.8002 598.502 11.3302 598.182 12.4402Z" fill="black"/>
</g>
</g>
<path d="M1135.97 14.9731C1138.14 14.9731 1140.07 15.423 1141.77 16.3228C1143.51 17.2225 1144.86 18.5554 1145.82 20.3216C1146.79 22.0878 1147.27 24.2205 1147.27 26.7198V42.9651H1141.62V27.5695C1141.62 25.1036 1141.01 23.2208 1139.77 21.9211C1138.54 20.5882 1136.86 19.9217 1134.72 19.9217C1132.59 19.9217 1130.89 20.5882 1129.62 21.9211C1128.39 23.2208 1127.77 25.1036 1127.77 27.5695V42.9651H1122.07V15.423H1127.77V18.5721C1128.71 17.4391 1129.89 16.556 1131.32 15.9229C1132.79 15.2897 1134.34 14.9731 1135.97 14.9731Z" fill="black"/>
<path d="M1112.79 11.774C1111.76 11.774 1110.89 11.4241 1110.19 10.7243C1109.49 10.0245 1109.14 9.15806 1109.14 8.12502C1109.14 7.09199 1109.49 6.22557 1110.19 5.52577C1110.89 4.82597 1111.76 4.47607 1112.79 4.47607C1113.79 4.47607 1114.64 4.82597 1115.34 5.52577C1116.04 6.22557 1116.39 7.09199 1116.39 8.12502C1116.39 9.15806 1116.04 10.0245 1115.34 10.7243C1114.64 11.4241 1113.79 11.774 1112.79 11.774ZM1115.59 15.4229V42.965H1109.89V15.4229H1115.59Z" fill="black"/>
<path d="M1075.11 29.0691C1075.11 26.3032 1075.68 23.8539 1076.81 21.7212C1077.98 19.5885 1079.54 17.939 1081.51 16.7726C1083.51 15.573 1085.71 14.9731 1088.11 14.9731C1090.28 14.9731 1092.16 15.4064 1093.76 16.2728C1095.39 17.1059 1096.69 18.1556 1097.66 19.4219V15.423H1103.41V42.9651H1097.66V38.8663C1096.69 40.1659 1095.37 41.2489 1093.71 42.1153C1092.04 42.9817 1090.14 43.4149 1088.01 43.4149C1085.64 43.4149 1083.48 42.8151 1081.51 41.6155C1079.54 40.3825 1077.98 38.683 1076.81 36.5169C1075.68 34.3176 1075.11 31.8349 1075.11 29.0691ZM1097.66 29.169C1097.66 27.2696 1097.26 25.6201 1096.46 24.2205C1095.69 22.8209 1094.67 21.7545 1093.41 21.0214C1092.14 20.2883 1090.78 19.9217 1089.31 19.9217C1087.84 19.9217 1086.48 20.2883 1085.21 21.0214C1083.94 21.7212 1082.91 22.7709 1082.11 24.1705C1081.34 25.5368 1080.96 27.1696 1080.96 29.0691C1080.96 30.9685 1081.34 32.6347 1082.11 34.0676C1082.91 35.5006 1083.94 36.6002 1085.21 37.3667C1086.51 38.0998 1087.88 38.4664 1089.31 38.4664C1090.78 38.4664 1092.14 38.0998 1093.41 37.3667C1094.67 36.6336 1095.69 35.5672 1096.46 34.1676C1097.26 32.7347 1097.66 31.0685 1097.66 29.169Z" fill="black"/>
<path d="M1059.79 14.973C1061.89 14.973 1063.75 15.4229 1065.39 16.3226C1067.05 17.2223 1068.35 18.5553 1069.29 20.3215C1070.25 22.0876 1070.74 24.2203 1070.74 26.7196V42.9649H1065.09V27.5694C1065.09 25.1034 1064.47 23.2206 1063.24 21.921C1062 20.588 1060.32 19.9216 1058.19 19.9216C1056.05 19.9216 1054.35 20.588 1053.09 21.921C1051.85 23.2206 1051.24 25.1034 1051.24 27.5694V42.9649H1045.54V5.97559H1051.24V18.6219C1052.2 17.4556 1053.42 16.5559 1054.89 15.9227C1056.39 15.2896 1058.02 14.973 1059.79 14.973Z" fill="black"/>
<path d="M1005.96 25.5203C1005.96 22.1213 1006.75 19.0721 1008.31 16.3729C1009.91 13.6737 1012.06 11.5743 1014.76 10.0747C1017.5 8.54184 1020.48 7.77539 1023.71 7.77539C1027.41 7.77539 1030.7 8.69179 1033.56 10.5246C1036.46 12.3241 1038.56 14.89 1039.86 18.2224H1033.01C1032.11 16.3896 1030.86 15.0233 1029.26 14.1236C1027.66 13.2238 1025.81 12.774 1023.71 12.774C1021.41 12.774 1019.36 13.2905 1017.56 14.3235C1015.76 15.3565 1014.35 16.8394 1013.31 18.7722C1012.31 20.705 1011.81 22.9544 1011.81 25.5203C1011.81 28.0862 1012.31 30.3356 1013.31 32.2683C1014.35 34.2011 1015.76 35.7007 1017.56 36.767C1019.36 37.8001 1021.41 38.3166 1023.71 38.3166C1025.81 38.3166 1027.66 37.8667 1029.26 36.967C1030.86 36.0672 1032.11 34.701 1033.01 32.8682H1039.86C1038.56 36.2005 1036.46 38.7665 1033.56 40.5659C1030.7 42.3654 1027.41 43.2652 1023.71 43.2652C1020.45 43.2652 1017.46 42.5154 1014.76 41.0158C1012.06 39.4829 1009.91 37.3669 1008.31 34.6676C1006.75 31.9684 1005.96 28.9193 1005.96 25.5203Z" fill="black"/>
<path d="M961.092 29.0691C961.092 26.3032 961.659 23.8539 962.792 21.7212C963.959 19.5885 965.525 17.939 967.492 16.7726C969.492 15.573 971.692 14.9731 974.092 14.9731C976.258 14.9731 978.141 15.4064 979.741 16.2728C981.375 17.1059 982.675 18.1556 983.641 19.4219V15.423H989.391V42.9651H983.641V38.8663C982.675 40.1659 981.358 41.2489 979.691 42.1153C978.025 42.9817 976.125 43.4149 973.992 43.4149C971.625 43.4149 969.458 42.8151 967.492 41.6155C965.525 40.3825 963.959 38.683 962.792 36.5169C961.659 34.3176 961.092 31.8349 961.092 29.0691ZM983.641 29.169C983.641 27.2696 983.241 25.6201 982.441 24.2205C981.675 22.8209 980.658 21.7545 979.391 21.0214C978.125 20.2883 976.758 19.9217 975.291 19.9217C973.825 19.9217 972.458 20.2883 971.192 21.0214C969.925 21.7212 968.892 22.7709 968.092 24.1705C967.325 25.5368 966.942 27.1696 966.942 29.0691C966.942 30.9685 967.325 32.6347 968.092 34.0676C968.892 35.5006 969.925 36.6002 971.192 37.3667C972.492 38.0998 973.858 38.4664 975.291 38.4664C976.758 38.4664 978.125 38.0998 979.391 37.3667C980.658 36.6336 981.675 35.5672 982.441 34.1676C983.241 32.7347 983.641 31.0685 983.641 29.169Z" fill="black"/>
<path d="M932.112 29.169C932.112 26.3365 932.678 23.8539 933.812 21.7212C934.978 19.5552 936.578 17.889 938.612 16.7226C940.645 15.5563 942.978 14.9731 945.611 14.9731C948.945 14.9731 951.695 15.7729 953.861 17.3725C956.061 18.9387 957.544 21.188 958.311 24.1205H952.161C951.661 22.7542 950.861 21.6879 949.761 20.9214C948.661 20.155 947.278 19.7718 945.611 19.7718C943.278 19.7718 941.412 20.6049 940.012 22.271C938.645 23.9039 937.962 26.2032 937.962 29.169C937.962 32.1349 938.645 34.4509 940.012 36.117C941.412 37.7832 943.278 38.6163 945.611 38.6163C948.911 38.6163 951.095 37.1667 952.161 34.2676H958.311C957.511 37.0668 956.011 39.2995 953.811 40.9656C951.611 42.5985 948.878 43.4149 945.611 43.4149C942.978 43.4149 940.645 42.8318 938.612 41.6654C936.578 40.4658 934.978 38.7996 933.812 36.6669C932.678 34.5008 932.112 32.0016 932.112 29.169Z" fill="black"/>
<path d="M915.08 43.4149C912.48 43.4149 910.13 42.8318 908.03 41.6654C905.931 40.4658 904.281 38.7996 903.081 36.6669C901.881 34.5008 901.281 32.0016 901.281 29.169C901.281 26.3699 901.897 23.8872 903.131 21.7212C904.364 19.5552 906.047 17.889 908.18 16.7226C910.314 15.5563 912.697 14.9731 915.33 14.9731C917.963 14.9731 920.347 15.5563 922.48 16.7226C924.613 17.889 926.297 19.5552 927.53 21.7212C928.763 23.8872 929.38 26.3699 929.38 29.169C929.38 31.9682 928.746 34.4509 927.48 36.6169C926.213 38.7829 924.48 40.4658 922.28 41.6654C920.113 42.8318 917.713 43.4149 915.08 43.4149ZM915.08 38.4664C916.547 38.4664 917.913 38.1165 919.18 37.4167C920.48 36.7169 921.53 35.6672 922.33 34.2676C923.13 32.868 923.53 31.1685 923.53 29.169C923.53 27.1696 923.147 25.4868 922.38 24.1205C921.613 22.7209 920.597 21.6712 919.33 20.9714C918.063 20.2716 916.697 19.9217 915.23 19.9217C913.764 19.9217 912.397 20.2716 911.13 20.9714C909.897 21.6712 908.914 22.7209 908.18 24.1205C907.447 25.4868 907.081 27.1696 907.081 29.169C907.081 32.1349 907.83 34.4342 909.33 36.0671C910.864 37.6666 912.78 38.4664 915.08 38.4664Z" fill="black"/>
<path d="M896.638 8.2251V42.9651H890.938V19.1719L880.339 42.9651H876.389L865.739 19.1719V42.9651H860.039V8.2251H866.189L878.389 35.4672L890.538 8.2251H896.638Z" fill="black"/>
<path d="M811.712 31.5561C812.465 28.851 810.663 26.1033 807.686 25.4188C804.709 24.7343 801.686 26.3723 800.933 29.0773C800.18 31.7824 801.982 34.5301 804.958 35.2145C807.935 35.8995 810.959 34.2611 811.712 31.5561Z" fill="#EF61B4"/>
<path d="M834.643 47.517C833.985 47.8792 833.326 48 832.668 48C831.285 48 829.903 47.3358 829.179 46.1283L807.056 10.9283L784.934 46.1283C783.815 47.8792 781.379 48.483 779.469 47.4566C777.56 46.4302 776.901 44.1962 778.021 42.4453L791.847 20.4679L785.856 10.9283L763.733 46.1283C763.009 47.3358 761.626 48 760.244 48C759.585 48 758.861 47.8189 758.269 47.517C756.359 46.4906 755.701 44.2566 756.82 42.5057L782.432 1.81132C783.156 0.664149 784.473 0 785.922 0C787.37 0 788.687 0.724527 789.411 1.81132L796.588 13.1622L803.764 1.81132C804.488 0.664149 805.805 0 807.254 0C808.702 0 810.019 0.724527 810.743 1.81132L836.355 42.5057C837.474 44.2566 836.816 46.4906 834.907 47.517H834.643Z" fill="#EF61B4"/>
<defs>
<clipPath id="clip0_3313_5312">
<rect width="130" height="48" fill="white" transform="translate(526.274)"/>
</clipPath>
</defs>
</svg>
