<svg width="176" height="16" viewBox="0 0 176 16" fill="none" xmlns="http://www.w3.org/2000/svg">
<path d="M0 15.7404V0.464767H2.51073L8.74271 9.8335H7.46493L13.6745 0.464767H16.2076V15.7404H12.6881V6.19851L13.3158 6.34998L9.25831 12.4516H6.92691L2.89181 6.34998L3.49709 6.19851V15.7404H0ZM26.1249 16C24.9294 16 23.8235 15.798 22.8072 15.3942C21.8059 14.9902 20.9241 14.4277 20.162 13.7065C19.3999 12.9853 18.8095 12.1487 18.391 11.1966C17.9726 10.2302 17.7634 9.19163 17.7634 8.08093C17.7634 6.9558 17.9726 5.91723 18.391 4.96523C18.8095 4.0132 19.3923 3.18378 20.1396 2.47698C20.8868 1.75576 21.761 1.2004 22.7624 0.810949C23.7786 0.407059 24.8845 0.205124 26.0801 0.205124C27.2608 0.205124 28.3518 0.407059 29.353 0.810949C30.3692 1.2004 31.251 1.75576 31.9982 2.47698C32.7605 3.18378 33.3509 4.02042 33.7692 4.98686C34.1878 5.93887 34.3969 6.97744 34.3969 8.10257C34.3969 9.21326 34.1878 10.2518 33.7692 11.2183C33.3509 12.1703 32.7679 13.0069 32.0206 13.7281C31.2734 14.435 30.3916 14.9902 29.3754 15.3942C28.3742 15.798 27.2907 16 26.1249 16ZM26.0801 12.9059C27.0218 12.9059 27.8436 12.704 28.546 12.3001C29.2633 11.8962 29.8164 11.3337 30.205 10.6124C30.5936 9.87679 30.7878 9.03294 30.7878 8.08093C30.7878 7.35969 30.6757 6.7106 30.4515 6.13361C30.2274 5.5422 29.906 5.03735 29.4875 4.61902C29.0691 4.1863 28.5684 3.86175 27.9856 3.64538C27.4177 3.41457 26.7825 3.29918 26.0801 3.29918C25.1387 3.29918 24.3093 3.50113 23.5918 3.90502C22.8894 4.29448 22.3438 4.84983 21.9554 5.57105C21.5668 6.27785 21.3724 7.11449 21.3724 8.08093C21.3724 8.80215 21.4847 9.45847 21.7089 10.0499C21.933 10.6413 22.2468 11.1534 22.6503 11.5861C23.0687 12.0044 23.5694 12.329 24.1522 12.5598C24.7352 12.7905 25.3777 12.9059 26.0801 12.9059ZM43.6872 15.9784C42.5065 15.9784 41.4082 15.7836 40.3919 15.3942C39.3906 14.9902 38.5088 14.4277 37.7467 13.7065C36.9995 12.9853 36.4167 12.1487 35.9981 11.1966C35.5797 10.2302 35.3705 9.19163 35.3705 8.08093C35.3705 6.97024 35.5797 5.93887 35.9981 4.98686C36.4167 4.02042 36.9995 3.18378 37.7467 2.47698C38.494 1.77018 39.3682 1.22204 40.3695 0.832585C41.3858 0.428694 42.4841 0.226759 43.6648 0.226759C44.9203 0.226759 46.0335 0.421476 47.0049 0.810949C47.9914 1.2004 48.8507 1.73412 49.5829 2.41207L47.2293 4.70558C46.8107 4.27284 46.3027 3.93386 45.7048 3.68865C45.122 3.44342 44.442 3.32081 43.6648 3.32081C42.9775 3.32081 42.3423 3.43623 41.7595 3.66701C41.1916 3.88339 40.6982 4.20072 40.2799 4.61902C39.8764 5.03735 39.555 5.5422 39.316 6.13361C39.0918 6.72502 38.9798 7.37413 38.9798 8.08093C38.9798 8.80215 39.0918 9.45847 39.316 10.0499C39.555 10.6413 39.8764 11.1462 40.2799 11.5645C40.6982 11.9828 41.1916 12.3073 41.7595 12.5381C42.3423 12.7689 42.9775 12.8843 43.6648 12.8843C44.472 12.8843 45.1742 12.7617 45.7721 12.5165C46.37 12.2713 46.8855 11.9323 47.319 11.4996L49.695 13.793C48.9329 14.471 48.0587 15.0048 47.0724 15.3942C46.1008 15.7836 44.9725 15.9784 43.6872 15.9784ZM49.3784 15.7404L55.6554 0.464767H58.8386L65.0481 15.7404H61.3269L56.5744 3.06117H57.8521L53.0325 15.7404H49.3784ZM52.9429 12.9708V10.2013H61.5735V12.9708H52.9429Z" fill="white"/>
<path d="M171.623 15.5897L165.203 7.62402L171.421 0.307693H175.776L168.772 8.25174V6.86641L176 15.5897H171.623ZM162.038 15.5897V0.307693H165.562V15.5897H162.038Z" fill="white"/>
<path d="M151.512 9.29074V6.77981H154.857C155.561 6.77981 156.1 6.60666 156.474 6.26031C156.863 5.91398 157.058 5.44499 157.058 4.85333C157.058 4.30496 156.87 3.85039 156.496 3.48964C156.122 3.12887 155.583 2.94849 154.88 2.94849H151.512V0.307693H155.284C156.332 0.307693 157.252 0.502493 158.045 0.892129C158.839 1.26732 159.46 1.79405 159.909 2.47228C160.358 3.15051 160.583 3.92977 160.583 4.81004C160.583 5.70474 160.358 6.49121 159.909 7.16945C159.46 7.83326 158.831 8.35276 158.023 8.72795C157.215 9.10315 156.264 9.29074 155.171 9.29074H151.512ZM148.817 15.5897V0.307693H152.342V15.5897H148.817ZM157.439 15.5897L152.5 9.00935L155.733 8.16516L161.615 15.5897H157.439Z" fill="white"/>
<path d="M139.396 15.8974C138.202 15.8974 137.098 15.6941 136.084 15.2877C135.084 14.8811 134.204 14.3149 133.443 13.589C132.682 12.8631 132.092 12.0211 131.675 11.0629C131.257 10.0902 131.048 9.04485 131.048 7.92694C131.048 6.79453 131.257 5.74922 131.675 4.79101C132.092 3.83282 132.674 2.99802 133.42 2.28662C134.166 1.5607 135.039 1.00176 136.039 0.609759C137.053 0.203247 138.157 0 139.351 0C140.53 0 141.619 0.203247 142.618 0.609759C143.633 1.00176 144.513 1.5607 145.259 2.28662C146.02 2.99802 146.609 3.84006 147.027 4.81278C147.445 5.77099 147.654 6.8163 147.654 7.94872C147.654 9.06662 147.445 10.1119 147.027 11.0847C146.609 12.0429 146.028 12.8849 145.282 13.6108C144.536 14.3223 143.655 14.8811 142.641 15.2877C141.641 15.6941 140.559 15.8974 139.396 15.8974ZM139.351 12.7833C140.291 12.7833 141.112 12.58 141.813 12.1735C142.529 11.767 143.081 11.2008 143.469 10.4749C143.857 9.73446 144.051 8.88515 144.051 7.92694C144.051 7.20104 143.939 6.54771 143.715 5.96699C143.491 5.37174 143.171 4.8636 142.753 4.44258C142.335 4.00702 141.835 3.68037 141.253 3.46259C140.686 3.2303 140.052 3.11416 139.351 3.11416C138.411 3.11416 137.583 3.31741 136.867 3.72392C136.166 4.11592 135.621 4.67486 135.233 5.40078C134.845 6.11218 134.651 6.95422 134.651 7.92694C134.651 8.65286 134.763 9.31344 134.987 9.90869C135.211 10.5039 135.524 11.0193 135.927 11.4549C136.345 11.8759 136.844 12.2026 137.426 12.4348C138.008 12.6672 138.65 12.7833 139.351 12.7833Z" fill="white"/>
<path d="M115.085 15.5897L110 0.307693H113.494L117.213 12.0614H115.846L119.475 0.307693H122.23L125.859 12.0614H124.515L128.211 0.307693H131.683L126.598 15.5897H123.843L120.192 3.83597H121.491L117.84 15.5897H115.085Z" fill="white"/>
<path d="M102.293 15.5897V0.524137H105.834V15.5897H102.293ZM97.4095 3.20196L97.3077 0.307693H110.819L111.481 3.20196H97.4095Z" fill="white"/>
<path d="M86.2019 15.5897V0.307693H89.7267V15.5897H86.2019ZM88.8959 15.5897V12.6459H97.5839V15.5897H88.8959ZM88.8959 9.20417V6.36855H96.7983V9.20417H88.8959ZM88.8959 3.20196V0.307693H97.4717L97.7308 3.20196H88.8959Z" fill="white"/>
<path d="M70.7596 15.5897V0.307693H73.2335L74.2904 3.35976V15.5897H70.7596ZM81.7118 15.5897L72.3565 4.05243L73.2335 0.307693L82.5889 11.845L81.7118 15.5897ZM81.7118 15.5897L80.7674 12.5376V0.307693H84.2981V15.5897H81.7118Z" fill="white"/>
</svg>
